<mxfile host="app.diagrams.net" agent="Mozilla/5.0 (Windows NT 10.0; Win64; x64) AppleWebKit/537.36 (KHTML, like Gecko) Chrome/139.0.0.0 Safari/537.36" version="28.1.2" pages="2">
  <diagram name="Page-1" id="6133507b-19e7-1e82-6fc7-422aa6c4b21f">
    <mxGraphModel dx="3203" dy="4108" grid="1" gridSize="10" guides="1" tooltips="1" connect="1" arrows="1" fold="1" page="1" pageScale="1" pageWidth="1100" pageHeight="850" background="none" math="0" shadow="0">
      <root>
        <mxCell id="0" />
        <mxCell id="1" parent="0" />
        <mxCell id="WYGD5b2Uk_TGd4W03XPv-43" style="edgeStyle=orthogonalEdgeStyle;rounded=0;orthogonalLoop=1;jettySize=auto;html=1;entryX=0.5;entryY=0;entryDx=0;entryDy=0;" parent="1" source="WYGD5b2Uk_TGd4W03XPv-1" target="WYGD5b2Uk_TGd4W03XPv-29" edge="1">
          <mxGeometry relative="1" as="geometry" />
        </mxCell>
        <mxCell id="WYGD5b2Uk_TGd4W03XPv-1" value="&lt;font style=&quot;font-size: 24px;&quot; face=&quot;Times New Roman&quot;&gt;Input DataFrame&lt;/font&gt;&lt;div&gt;&lt;b&gt;&lt;font style=&quot;font-size: 24px;&quot; face=&quot;Times New Roman&quot;&gt;(origSchema)&lt;/font&gt;&lt;/b&gt;&lt;/div&gt;" style="shape=cylinder3;whiteSpace=wrap;html=1;boundedLbl=1;backgroundOutline=1;size=15;" parent="1" vertex="1">
          <mxGeometry x="1120" y="-2190" width="420" height="240" as="geometry" />
        </mxCell>
        <mxCell id="WYGD5b2Uk_TGd4W03XPv-29" value="" style="swimlane;startSize=80;" parent="1" vertex="1">
          <mxGeometry x="170" y="-1530" width="3010" height="2030" as="geometry" />
        </mxCell>
        <mxCell id="WYGD5b2Uk_TGd4W03XPv-34" style="edgeStyle=orthogonalEdgeStyle;rounded=0;orthogonalLoop=1;jettySize=auto;html=1;" parent="WYGD5b2Uk_TGd4W03XPv-29" source="WYGD5b2Uk_TGd4W03XPv-30" target="WYGD5b2Uk_TGd4W03XPv-33" edge="1">
          <mxGeometry relative="1" as="geometry" />
        </mxCell>
        <mxCell id="WYGD5b2Uk_TGd4W03XPv-30" value="&lt;div style=&quot;&quot;&gt;&lt;b style=&quot;background-color: transparent; color: light-dark(rgb(0, 0, 0), rgb(255, 255, 255));&quot;&gt;&lt;font style=&quot;font-size: 24px;&quot; face=&quot;Times New Roman&quot;&gt;TypeParser.&lt;font style=&quot;&quot;&gt;Standardize&lt;/font&gt;&lt;/font&gt;&lt;/b&gt;&lt;/div&gt;&lt;div&gt;&lt;span style=&quot;background-color: transparent; color: light-dark(rgb(0, 0, 0), rgb(255, 255, 255));&quot;&gt;&lt;font face=&quot;Times New Roman&quot; style=&quot;font-size: 24px;&quot;&gt;&lt;br&gt;&lt;/font&gt;&lt;/span&gt;&lt;/div&gt;&lt;div&gt;&lt;ul&gt;&lt;li&gt;&lt;span style=&quot;background-color: transparent; color: light-dark(rgb(0, 0, 0), rgb(255, 255, 255));&quot;&gt;&lt;font face=&quot;Times New Roman&quot; style=&quot;font-size: 24px;&quot;&gt;&amp;nbsp;Constructs sourceName and origFieldType&lt;/font&gt;&lt;/span&gt;&lt;/li&gt;&lt;li&gt;&lt;font face=&quot;Times New Roman&quot; style=&quot;font-size: 24px;&quot;&gt;&amp;nbsp;Creates input Column&lt;/font&gt;&lt;/li&gt;&lt;li&gt;&lt;font face=&quot;Times New Roman&quot; style=&quot;font-size: 24px;&quot;&gt;Uses TypeDefaults for defaults&lt;/font&gt;&lt;/li&gt;&lt;/ul&gt;&lt;/div&gt;" style="rounded=0;whiteSpace=wrap;html=1;align=left;" parent="WYGD5b2Uk_TGd4W03XPv-29" vertex="1">
          <mxGeometry x="330" y="90" width="530" height="230" as="geometry" />
        </mxCell>
        <mxCell id="WYGD5b2Uk_TGd4W03XPv-39" style="edgeStyle=orthogonalEdgeStyle;rounded=0;orthogonalLoop=1;jettySize=auto;html=1;entryX=0;entryY=0.5;entryDx=0;entryDy=0;" parent="WYGD5b2Uk_TGd4W03XPv-29" source="WYGD5b2Uk_TGd4W03XPv-33" target="WYGD5b2Uk_TGd4W03XPv-35" edge="1">
          <mxGeometry relative="1" as="geometry" />
        </mxCell>
        <mxCell id="WYGD5b2Uk_TGd4W03XPv-46" style="edgeStyle=orthogonalEdgeStyle;rounded=0;orthogonalLoop=1;jettySize=auto;html=1;entryX=0.5;entryY=0;entryDx=0;entryDy=0;" parent="WYGD5b2Uk_TGd4W03XPv-29" source="WYGD5b2Uk_TGd4W03XPv-33" target="WYGD5b2Uk_TGd4W03XPv-42" edge="1">
          <mxGeometry relative="1" as="geometry" />
        </mxCell>
        <mxCell id="WYGD5b2Uk_TGd4W03XPv-33" value="&lt;div style=&quot;&quot;&gt;&lt;b style=&quot;background-color: transparent; color: light-dark(rgb(0, 0, 0), rgb(255, 255, 255));&quot;&gt;&lt;font style=&quot;font-size: 24px;&quot; face=&quot;Times New Roman&quot;&gt;TypeParser Factory&amp;nbsp;&lt;/font&gt;&lt;/b&gt;&lt;/div&gt;&lt;div&gt;&lt;span style=&quot;background-color: transparent; color: light-dark(rgb(0, 0, 0), rgb(255, 255, 255));&quot;&gt;&lt;font style=&quot;font-size: 24px;&quot; face=&quot;Times New Roman&quot;&gt;&lt;br&gt;&lt;/font&gt;&lt;/span&gt;&lt;/div&gt;&lt;div&gt;&lt;ul&gt;&lt;li style=&quot;&quot;&gt;&lt;span style=&quot;background-color: transparent; color: light-dark(rgb(0, 0, 0), rgb(255, 255, 255));&quot;&gt;&lt;font style=&quot;font-size: 24px;&quot; face=&quot;Times New Roman&quot;&gt;&amp;nbsp;Matches field.dataType&lt;/font&gt;&lt;/span&gt;&lt;/li&gt;&lt;li style=&quot;&quot;&gt;&lt;font face=&quot;Times New Roman&quot; style=&quot;font-size: 24px;&quot;&gt;&amp;nbsp;Instantiates for specific parser:&lt;/font&gt;&lt;/li&gt;&lt;ul&gt;&lt;li style=&quot;&quot;&gt;&lt;font face=&quot;Times New Roman&quot; style=&quot;font-size: 24px;&quot;&gt;ArrayParser&lt;/font&gt;&lt;/li&gt;&lt;li style=&quot;&quot;&gt;&lt;font face=&quot;Times New Roman&quot; style=&quot;font-size: 24px;&quot;&gt;StructParser&lt;/font&gt;&lt;/li&gt;&lt;li style=&quot;&quot;&gt;&lt;font face=&quot;Times New Roman&quot; style=&quot;font-size: 24px;&quot;&gt;NumericParser (Int , Dec, Frac)&lt;/font&gt;&lt;/li&gt;&lt;li style=&quot;&quot;&gt;&lt;font face=&quot;Times New Roman&quot; style=&quot;font-size: 24px;&quot;&gt;StringParser&lt;/font&gt;&lt;/li&gt;&lt;li style=&quot;&quot;&gt;&lt;font face=&quot;Times New Roman&quot; style=&quot;font-size: 24px;&quot;&gt;DateTimeParser&lt;/font&gt;&lt;/li&gt;&lt;li style=&quot;&quot;&gt;&lt;font face=&quot;Times New Roman&quot; style=&quot;font-size: 24px;&quot;&gt;BinaryParser&lt;/font&gt;&lt;/li&gt;&lt;li style=&quot;&quot;&gt;&lt;font face=&quot;Times New Roman&quot; style=&quot;font-size: 24px;&quot;&gt;TimestampParser&lt;/font&gt;&lt;/li&gt;&lt;/ul&gt;&lt;/ul&gt;&lt;/div&gt;" style="rounded=0;whiteSpace=wrap;html=1;align=left;" parent="WYGD5b2Uk_TGd4W03XPv-29" vertex="1">
          <mxGeometry x="430" y="420" width="585" height="520" as="geometry" />
        </mxCell>
        <mxCell id="WYGD5b2Uk_TGd4W03XPv-40" style="edgeStyle=orthogonalEdgeStyle;rounded=0;orthogonalLoop=1;jettySize=auto;html=1;exitX=0;exitY=0.25;exitDx=0;exitDy=0;entryX=1;entryY=0.25;entryDx=0;entryDy=0;" parent="WYGD5b2Uk_TGd4W03XPv-29" source="WYGD5b2Uk_TGd4W03XPv-35" target="WYGD5b2Uk_TGd4W03XPv-33" edge="1">
          <mxGeometry relative="1" as="geometry" />
        </mxCell>
        <mxCell id="WYGD5b2Uk_TGd4W03XPv-44" style="edgeStyle=orthogonalEdgeStyle;rounded=0;orthogonalLoop=1;jettySize=auto;html=1;entryX=0.5;entryY=0;entryDx=0;entryDy=0;" parent="WYGD5b2Uk_TGd4W03XPv-29" source="WYGD5b2Uk_TGd4W03XPv-35" target="WYGD5b2Uk_TGd4W03XPv-41" edge="1">
          <mxGeometry relative="1" as="geometry" />
        </mxCell>
        <mxCell id="WYGD5b2Uk_TGd4W03XPv-35" value="&lt;div style=&quot;text-align: left;&quot;&gt;&lt;b style=&quot;font-family: &amp;quot;Times New Roman&amp;quot;; background-color: transparent; color: light-dark(rgb(0, 0, 0), rgb(255, 255, 255));&quot;&gt;&lt;font style=&quot;font-size: 24px;&quot;&gt;TypedStructField Factory&amp;nbsp;&lt;/font&gt;&lt;/b&gt;&lt;/div&gt;&lt;div&gt;&lt;span style=&quot;font-family: &amp;quot;Times New Roman&amp;quot;; background-color: transparent; color: light-dark(rgb(0, 0, 0), rgb(255, 255, 255));&quot;&gt;&lt;font style=&quot;font-size: 24px;&quot;&gt;&lt;br&gt;&lt;/font&gt;&lt;/span&gt;&lt;/div&gt;&lt;div&gt;&lt;ul&gt;&lt;li style=&quot;text-align: left;&quot;&gt;&lt;span style=&quot;font-family: &amp;quot;Times New Roman&amp;quot;; background-color: transparent; color: light-dark(rgb(0, 0, 0), rgb(255, 255, 255));&quot;&gt;&lt;font style=&quot;font-size: 24px;&quot;&gt;Creates type-safe TypedStructField&lt;/font&gt;&lt;/span&gt;&lt;/li&gt;&lt;ul&gt;&lt;li style=&quot;text-align: left;&quot;&gt;&lt;font style=&quot;font-size: 24px;&quot; face=&quot;Times New Roman&quot;&gt;StringTypeStructField&lt;/font&gt;&lt;/li&gt;&lt;li style=&quot;text-align: left;&quot;&gt;&lt;font style=&quot;font-size: 24px;&quot; face=&quot;Times New Roman&quot;&gt;NumericTypeStructField[N]&lt;/font&gt;&lt;/li&gt;&lt;li style=&quot;text-align: left;&quot;&gt;&lt;font style=&quot;font-size: 24px;&quot; face=&quot;Times New Roman&quot;&gt;DateTimeTypeStructField[T]&lt;/font&gt;&lt;/li&gt;&lt;li style=&quot;text-align: left;&quot;&gt;&lt;font style=&quot;font-size: 24px;&quot; face=&quot;Times New Roman&quot;&gt;ArrayTypeStructField&lt;/font&gt;&lt;/li&gt;&lt;/ul&gt;&lt;li style=&quot;text-align: left;&quot;&gt;&lt;font face=&quot;Times New Roman&quot; style=&quot;font-size: 24px;&quot;&gt;Provides name, nullable, dataType, metadata, pattern, defaultValueWithGlobal&lt;/font&gt;&lt;/li&gt;&lt;/ul&gt;&lt;/div&gt;" style="rounded=0;whiteSpace=wrap;html=1;" parent="WYGD5b2Uk_TGd4W03XPv-29" vertex="1">
          <mxGeometry x="1800" y="390" width="700" height="475" as="geometry" />
        </mxCell>
        <mxCell id="WYGD5b2Uk_TGd4W03XPv-49" style="edgeStyle=orthogonalEdgeStyle;rounded=0;orthogonalLoop=1;jettySize=auto;html=1;exitX=0;exitY=0.25;exitDx=0;exitDy=0;entryX=1;entryY=0.25;entryDx=0;entryDy=0;" parent="WYGD5b2Uk_TGd4W03XPv-29" source="WYGD5b2Uk_TGd4W03XPv-41" target="WYGD5b2Uk_TGd4W03XPv-42" edge="1">
          <mxGeometry relative="1" as="geometry" />
        </mxCell>
        <mxCell id="WYGD5b2Uk_TGd4W03XPv-41" value="&lt;div style=&quot;&quot;&gt;&lt;b style=&quot;background-color: transparent; color: light-dark(rgb(0, 0, 0), rgb(255, 255, 255));&quot;&gt;&lt;font face=&quot;Times New Roman&quot; style=&quot;font-size: 24px;&quot;&gt;TypedStructField[T]&lt;/font&gt;&lt;/b&gt;&lt;/div&gt;&lt;div&gt;&lt;span style=&quot;background-color: transparent; color: light-dark(rgb(0, 0, 0), rgb(255, 255, 255));&quot;&gt;&lt;font face=&quot;Times New Roman&quot; style=&quot;font-size: 24px;&quot;&gt;&lt;br&gt;&lt;/font&gt;&lt;/span&gt;&lt;/div&gt;&lt;div&gt;&lt;ul&gt;&lt;li style=&quot;&quot;&gt;&lt;span style=&quot;background-color: transparent; color: light-dark(rgb(0, 0, 0), rgb(255, 255, 255));&quot;&gt;&lt;font style=&quot;font-size: 24px;&quot; face=&quot;Times New Roman&quot;&gt;Encapsulates StructField&lt;/font&gt;&lt;/span&gt;&lt;/li&gt;&lt;li style=&quot;&quot;&gt;&lt;span style=&quot;background-color: transparent; color: light-dark(rgb(0, 0, 0), rgb(255, 255, 255));&quot;&gt;&lt;font style=&quot;font-size: 24px;&quot; face=&quot;Times New Roman&quot;&gt;Properties:&lt;/font&gt;&lt;/span&gt;&lt;/li&gt;&lt;ul&gt;&lt;li&gt;&lt;font face=&quot;Times New Roman&quot; style=&quot;font-size: 24px;&quot;&gt;name, nullable, dataType&lt;/font&gt;&lt;/li&gt;&lt;li&gt;&lt;font face=&quot;Times New Roman&quot; style=&quot;font-size: 24px;&quot;&gt;pattern&lt;/font&gt;&lt;/li&gt;&lt;li&gt;&lt;font style=&quot;font-size: 24px;&quot; face=&quot;Times New Roman&quot;&gt;defaultValueWithGlobal&lt;/font&gt;&lt;/li&gt;&lt;li&gt;&lt;font face=&quot;Times New Roman&quot; style=&quot;font-size: 24px;&quot;&gt;needsUdfParsing&lt;/font&gt;&lt;/li&gt;&lt;/ul&gt;&lt;li&gt;&lt;font face=&quot;Times New Roman&quot; style=&quot;font-size: 24px;&quot;&gt;Validation via validate&amp;nbsp;&lt;/font&gt;&lt;/li&gt;&lt;li&gt;&lt;font face=&quot;Times New Roman&quot; style=&quot;font-size: 24px;&quot;&gt;Type-specific parsing&lt;/font&gt;&lt;/li&gt;&lt;ul&gt;&lt;li&gt;&lt;font face=&quot;Times New Roman&quot; style=&quot;font-size: 24px;&quot;&gt;DateTimeTypeStructField:&lt;/font&gt;&lt;/li&gt;&lt;ul&gt;&lt;li&gt;&lt;font face=&quot;Times New Roman&quot; style=&quot;font-size: 24px;&quot;&gt;Uses DateTimeParser for parsing&lt;/font&gt;&lt;/li&gt;&lt;li&gt;&lt;font face=&quot;Times New Roman&quot; style=&quot;font-size: 24px;&quot;&gt;Uses DateTimePattern for patterns&lt;/font&gt;&lt;/li&gt;&lt;/ul&gt;&lt;li&gt;&lt;font face=&quot;Times New Roman&quot; style=&quot;font-size: 24px;&quot;&gt;FractionalTypeStructField:&lt;/font&gt;&lt;/li&gt;&lt;ul&gt;&lt;li&gt;&lt;font style=&quot;font-size: 24px;&quot; face=&quot;Times New Roman&quot;&gt;provides allowInfinity, typeMin/max&lt;/font&gt;&lt;/li&gt;&lt;/ul&gt;&lt;/ul&gt;&lt;/ul&gt;&lt;/div&gt;" style="rounded=0;whiteSpace=wrap;html=1;align=left;" parent="WYGD5b2Uk_TGd4W03XPv-29" vertex="1">
          <mxGeometry x="1870" y="1080" width="590" height="620" as="geometry" />
        </mxCell>
        <mxCell id="WYGD5b2Uk_TGd4W03XPv-48" style="edgeStyle=orthogonalEdgeStyle;rounded=0;orthogonalLoop=1;jettySize=auto;html=1;entryX=0;entryY=0.5;entryDx=0;entryDy=0;" parent="WYGD5b2Uk_TGd4W03XPv-29" source="WYGD5b2Uk_TGd4W03XPv-42" target="WYGD5b2Uk_TGd4W03XPv-41" edge="1">
          <mxGeometry relative="1" as="geometry" />
        </mxCell>
        <mxCell id="WYGD5b2Uk_TGd4W03XPv-42" value="&lt;div style=&quot;&quot;&gt;&lt;b style=&quot;background-color: transparent; color: light-dark(rgb(0, 0, 0), rgb(255, 255, 255));&quot;&gt;&lt;font style=&quot;font-size: 24px;&quot; face=&quot;Times New Roman&quot;&gt;TypeParser [T]&lt;/font&gt;&lt;/b&gt;&lt;/div&gt;&lt;div&gt;&lt;span style=&quot;background-color: transparent; color: light-dark(rgb(0, 0, 0), rgb(255, 255, 255));&quot;&gt;&lt;font style=&quot;font-size: 24px;&quot; face=&quot;Times New Roman&quot;&gt;&lt;br&gt;&lt;/font&gt;&lt;/span&gt;&lt;/div&gt;&lt;div&gt;&lt;ul&gt;&lt;li style=&quot;&quot;&gt;&lt;span style=&quot;background-color: transparent; color: light-dark(rgb(0, 0, 0), rgb(255, 255, 255));&quot;&gt;&lt;font style=&quot;font-size: 24px;&quot; face=&quot;Times New Roman&quot;&gt;Standardize&lt;/font&gt;&lt;/span&gt;&lt;/li&gt;&lt;ul&gt;&lt;li style=&quot;&quot;&gt;&lt;font style=&quot;font-size: 24px;&quot; face=&quot;Times New Roman&quot;&gt;checkSetupForFailures&lt;/font&gt;&lt;/li&gt;&lt;li style=&quot;&quot;&gt;&lt;font style=&quot;font-size: 24px;&quot; face=&quot;Times New Roman&quot;&gt;standardizeAfterCheck&lt;/font&gt;&lt;/li&gt;&lt;/ul&gt;&lt;li style=&quot;&quot;&gt;&lt;font style=&quot;font-size: 24px;&quot; face=&quot;Times New Roman&quot;&gt;Specific parsers:&lt;/font&gt;&lt;/li&gt;&lt;ul&gt;&lt;li style=&quot;&quot;&gt;&lt;span style=&quot;background-color: transparent; color: light-dark(rgb(0, 0, 0), rgb(255, 255, 255));&quot;&gt;&lt;font style=&quot;font-size: 24px;&quot; face=&quot;Times New Roman&quot;&gt;ArrayParser&lt;/font&gt;&lt;/span&gt;&lt;/li&gt;&lt;li style=&quot;&quot;&gt;&lt;span style=&quot;background-color: transparent; color: light-dark(rgb(0, 0, 0), rgb(255, 255, 255));&quot;&gt;&lt;font style=&quot;font-size: 24px;&quot; face=&quot;Times New Roman&quot;&gt;NumericParser&lt;/font&gt;&lt;/span&gt;&lt;/li&gt;&lt;ul&gt;&lt;li style=&quot;&quot;&gt;&lt;span style=&quot;background-color: transparent; color: light-dark(rgb(0, 0, 0), rgb(255, 255, 255));&quot;&gt;&lt;font style=&quot;font-size: 24px;&quot; face=&quot;Times New Roman&quot;&gt;Uses InfinitySupport for&amp;nbsp; -INF/INF&lt;/font&gt;&lt;/span&gt;&lt;/li&gt;&lt;/ul&gt;&lt;li style=&quot;&quot;&gt;&lt;span style=&quot;background-color: transparent; color: light-dark(rgb(0, 0, 0), rgb(255, 255, 255));&quot;&gt;&lt;font style=&quot;font-size: 24px;&quot; face=&quot;Times New Roman&quot;&gt;DateTimeParser&lt;/font&gt;&lt;/span&gt;&lt;/li&gt;&lt;ul&gt;&lt;li style=&quot;&quot;&gt;&lt;span style=&quot;background-color: transparent; color: light-dark(rgb(0, 0, 0), rgb(255, 255, 255));&quot;&gt;&lt;font style=&quot;font-size: 24px;&quot; face=&quot;Times New Roman&quot;&gt;Uses DateTimePattern for format&lt;/font&gt;&lt;/span&gt;&lt;/li&gt;&lt;li style=&quot;&quot;&gt;&lt;span style=&quot;background-color: transparent; color: light-dark(rgb(0, 0, 0), rgb(255, 255, 255));&quot;&gt;&lt;font style=&quot;font-size: 24px;&quot; face=&quot;Times New Roman&quot;&gt;Uses UDFbuilder for errors&lt;/font&gt;&lt;/span&gt;&lt;/li&gt;&lt;li style=&quot;&quot;&gt;&lt;span style=&quot;background-color: transparent; color: light-dark(rgb(0, 0, 0), rgb(255, 255, 255));&quot;&gt;&lt;font style=&quot;font-size: 24px;&quot; face=&quot;Times New Roman&quot;&gt;replaceCenturyUDF&lt;/font&gt;&lt;/span&gt;&lt;/li&gt;&lt;/ul&gt;&lt;/ul&gt;&lt;/ul&gt;&lt;/div&gt;" style="rounded=0;whiteSpace=wrap;html=1;align=left;" parent="WYGD5b2Uk_TGd4W03XPv-29" vertex="1">
          <mxGeometry x="450" y="1150" width="545" height="560" as="geometry" />
        </mxCell>
        <mxCell id="WYGD5b2Uk_TGd4W03XPv-50" value="&lt;div style=&quot;text-align: left;&quot;&gt;&lt;b style=&quot;background-color: transparent; color: light-dark(rgb(0, 0, 0), rgb(255, 255, 255));&quot;&gt;&lt;font style=&quot;font-size: 24px;&quot; face=&quot;Times New Roman&quot;&gt;ParseOutput&lt;/font&gt;&lt;/b&gt;&lt;/div&gt;&lt;div&gt;&lt;ul&gt;&lt;li style=&quot;text-align: left;&quot;&gt;&lt;span style=&quot;background-color: transparent; color: light-dark(rgb(0, 0, 0), rgb(255, 255, 255));&quot;&gt;&lt;font style=&quot;font-size: 24px;&quot; face=&quot;Times New Roman&quot;&gt;stdCol&lt;/font&gt;&lt;/span&gt;&lt;/li&gt;&lt;li style=&quot;text-align: left;&quot;&gt;&lt;span style=&quot;background-color: transparent; color: light-dark(rgb(0, 0, 0), rgb(255, 255, 255));&quot;&gt;&lt;font style=&quot;font-size: 24px;&quot; face=&quot;Times New Roman&quot;&gt;errors&lt;/font&gt;&lt;/span&gt;&lt;/li&gt;&lt;/ul&gt;&lt;/div&gt;" style="rounded=0;whiteSpace=wrap;html=1;" parent="WYGD5b2Uk_TGd4W03XPv-29" vertex="1">
          <mxGeometry x="1100" y="1770" width="410" height="160" as="geometry" />
        </mxCell>
        <mxCell id="T4gjYxkMo14ecaz2blla-4" value="&lt;font style=&quot;font-size: 48px;&quot; face=&quot;Times New Roman&quot;&gt;TypeParser&lt;/font&gt;" style="text;html=1;align=center;verticalAlign=middle;whiteSpace=wrap;rounded=0;" vertex="1" parent="WYGD5b2Uk_TGd4W03XPv-29">
          <mxGeometry x="1350" width="780" height="80" as="geometry" />
        </mxCell>
        <mxCell id="WYGD5b2Uk_TGd4W03XPv-52" value="&lt;font face=&quot;Times New Roman&quot; style=&quot;font-size: 24px;&quot;&gt;Output Dataframe&lt;/font&gt;&lt;div&gt;&lt;font style=&quot;font-size: 24px;&quot; face=&quot;Times New Roman&quot;&gt;- Standardized columns with target schema&lt;/font&gt;&lt;/div&gt;&lt;div&gt;&lt;font style=&quot;font-size: 24px;&quot; face=&quot;Times New Roman&quot;&gt;- Errors columns&amp;nbsp;&lt;/font&gt;&lt;/div&gt;" style="shape=cylinder3;whiteSpace=wrap;html=1;boundedLbl=1;backgroundOutline=1;size=15;" parent="1" vertex="1">
          <mxGeometry x="2530" y="800" width="480" height="300" as="geometry" />
        </mxCell>
        <mxCell id="WYGD5b2Uk_TGd4W03XPv-54" value="&lt;div style=&quot;&quot;&gt;&lt;b style=&quot;font-family: &amp;quot;Times New Roman&amp;quot;; background-color: transparent; color: light-dark(rgb(0, 0, 0), rgb(255, 255, 255));&quot;&gt;&lt;font style=&quot;font-size: 24px;&quot;&gt;InfinitySupport ISO (Date/Time)&lt;/font&gt;&lt;/b&gt;&lt;/div&gt;&lt;div style=&quot;&quot;&gt;&lt;font style=&quot;font-size: 18px;&quot;&gt;&lt;br&gt;&lt;/font&gt;&lt;/div&gt;&lt;div&gt;&lt;ul&gt;&lt;li style=&quot;&quot;&gt;&lt;font face=&quot;Times New Roman&quot; style=&quot;font-size: 24px;&quot;&gt;Handles ISO casting&amp;nbsp;&lt;/font&gt;&lt;/li&gt;&lt;li style=&quot;&quot;&gt;&lt;font face=&quot;Times New Roman&quot; style=&quot;font-size: 24px;&quot;&gt;Infinity replacement&lt;/font&gt;&lt;/li&gt;&lt;li style=&quot;&quot;&gt;&lt;font style=&quot;font-size: 24px;&quot; face=&quot;Times New Roman&quot;&gt;&lt;font style=&quot;&quot;&gt;Uses isOfISODateFormat/isOfISOTimestampForma&lt;/font&gt;t&lt;/font&gt;&lt;/li&gt;&lt;/ul&gt;&lt;/div&gt;" style="rounded=0;whiteSpace=wrap;html=1;align=left;" parent="1" vertex="1">
          <mxGeometry x="250" y="720" width="673.75" height="470" as="geometry" />
        </mxCell>
        <mxCell id="WYGD5b2Uk_TGd4W03XPv-55" style="edgeStyle=orthogonalEdgeStyle;rounded=0;orthogonalLoop=1;jettySize=auto;html=1;entryX=0.5;entryY=0;entryDx=0;entryDy=0;" parent="1" source="WYGD5b2Uk_TGd4W03XPv-42" target="WYGD5b2Uk_TGd4W03XPv-54" edge="1">
          <mxGeometry relative="1" as="geometry" />
        </mxCell>
        <mxCell id="WYGD5b2Uk_TGd4W03XPv-56" style="edgeStyle=orthogonalEdgeStyle;rounded=0;orthogonalLoop=1;jettySize=auto;html=1;exitX=0.75;exitY=0;exitDx=0;exitDy=0;entryX=0.75;entryY=1;entryDx=0;entryDy=0;" parent="1" source="WYGD5b2Uk_TGd4W03XPv-54" target="WYGD5b2Uk_TGd4W03XPv-42" edge="1">
          <mxGeometry relative="1" as="geometry" />
        </mxCell>
        <mxCell id="T4gjYxkMo14ecaz2blla-2" style="edgeStyle=orthogonalEdgeStyle;rounded=0;orthogonalLoop=1;jettySize=auto;html=1;entryX=0;entryY=0.75;entryDx=0;entryDy=0;" edge="1" parent="1" source="WYGD5b2Uk_TGd4W03XPv-54" target="T4gjYxkMo14ecaz2blla-1">
          <mxGeometry relative="1" as="geometry" />
        </mxCell>
        <mxCell id="T4gjYxkMo14ecaz2blla-5" style="edgeStyle=orthogonalEdgeStyle;rounded=0;orthogonalLoop=1;jettySize=auto;html=1;entryX=0.5;entryY=1;entryDx=0;entryDy=0;" edge="1" parent="1" source="T4gjYxkMo14ecaz2blla-1" target="WYGD5b2Uk_TGd4W03XPv-50">
          <mxGeometry relative="1" as="geometry" />
        </mxCell>
        <mxCell id="T4gjYxkMo14ecaz2blla-1" value="&lt;div style=&quot;&quot;&gt;&lt;b style=&quot;background-color: transparent; color: light-dark(rgb(0, 0, 0), rgb(255, 255, 255));&quot;&gt;&lt;font face=&quot;Times New Roman&quot; style=&quot;font-size: 24px;&quot;&gt;InfinitySupport (Numeric)&lt;/font&gt;&lt;/b&gt;&lt;/div&gt;&lt;div&gt;&lt;ul&gt;&lt;li style=&quot;&quot;&gt;&lt;font style=&quot;font-size: 24px;&quot; face=&quot;Times New Roman&quot;&gt;Replaces infinity for integers&lt;/font&gt;&lt;/li&gt;&lt;li style=&quot;&quot;&gt;&lt;font face=&quot;Times New Roman&quot;&gt;&lt;span style=&quot;font-size: 24px;&quot;&gt;Used for hoursworked, numbes&amp;nbsp;&lt;/span&gt;&lt;/font&gt;&lt;/li&gt;&lt;/ul&gt;&lt;/div&gt;" style="rounded=0;whiteSpace=wrap;html=1;align=left;" vertex="1" parent="1">
          <mxGeometry x="1420" y="750" width="550" height="470" as="geometry" />
        </mxCell>
        <mxCell id="T4gjYxkMo14ecaz2blla-6" style="edgeStyle=orthogonalEdgeStyle;rounded=0;orthogonalLoop=1;jettySize=auto;html=1;exitX=1;exitY=0.5;exitDx=0;exitDy=0;entryX=0.5;entryY=0;entryDx=0;entryDy=0;entryPerimeter=0;" edge="1" parent="1" source="WYGD5b2Uk_TGd4W03XPv-50" target="WYGD5b2Uk_TGd4W03XPv-52">
          <mxGeometry relative="1" as="geometry" />
        </mxCell>
      </root>
    </mxGraphModel>
  </diagram>
  <diagram id="LREEzGDWNSvEOjcS-pur" name="Page-2">
    <mxGraphModel dx="1290" dy="618" grid="1" gridSize="10" guides="1" tooltips="1" connect="1" arrows="1" fold="1" page="1" pageScale="1" pageWidth="850" pageHeight="1100" math="0" shadow="0">
      <root>
        <mxCell id="0" />
        <mxCell id="1" parent="0" />
      </root>
    </mxGraphModel>
  </diagram>
</mxfile>
